<svg xmlns="http://www.w3.org/2000/svg" width="512" height="512" viewBox="0 0 512 512" version="1.1">
	<path d="M 218 1.616 C 189.432 5.887, 158.290 16.428, 133.831 30.108 C 63.521 69.430, 17.113 133.951, 2.282 213 C -0.331 226.927, -0.331 285.073, 2.282 299 C 7.308 325.786, 15.437 349.385, 28.051 373.805 C 65.998 447.274, 138.083 498.833, 219.128 510.473 C 233.782 512.578, 278.218 512.578, 292.872 510.473 C 355.891 501.422, 415.446 467.264, 455.963 416.933 C 482.881 383.494, 502.342 340.822, 509.465 299.619 C 510.309 294.734, 511 289.474, 511 287.928 C 511 286.383, 511.450 284.840, 512 284.500 C 512.629 284.111, 513 273.137, 513 254.882 C 513 235.803, 512.658 226.093, 512 226.500 C 511.420 226.858, 511 225.887, 511 224.190 C 511 219.579, 508.206 204.597, 504.918 191.574 C 499.070 168.410, 484.386 135.785, 470.255 114.558 C 429.554 53.420, 364.192 11.771, 292.872 1.527 C 278.834 -0.490, 231.711 -0.433, 218 1.616 M 240 14.602 C 178.063 20.121, 126.952 43.240, 85.471 84.500 C 48.050 121.721, 24.127 169.854, 16.384 223.500 C 14.019 239.891, 14.019 272.109, 16.384 288.500 C 26.535 358.829, 64.478 419.238, 122.899 458.079 C 165.623 486.484, 220.834 500.984, 271.750 497.170 C 280.412 496.522, 291.550 495.297, 296.500 494.450 C 401.012 476.553, 480.313 394.530, 495.616 288.500 C 497.981 272.109, 497.981 239.891, 495.616 223.500 C 491.811 197.138, 484.206 172.248, 473.005 149.500 C 437.579 77.551, 370.752 28.665, 291.809 16.950 C 279.088 15.063, 249.754 13.733, 240 14.602 M 343.748 75.161 C 342.424 76.485, 340.927 78.254, 340.421 79.092 C 339.265 81.006, 323.254 94, 322.052 94 C 318.497 94, 299.273 115.271, 294.791 124.164 C 292.380 128.946, 291.571 129.690, 287.461 130.904 C 283.688 132.018, 282.142 132.037, 279.027 131.009 C 276.929 130.317, 274.828 129.979, 274.357 130.258 C 272.401 131.417, 269 129.035, 269 126.507 C 269 123.989, 268.953 123.973, 266.015 125.492 C 263.746 126.665, 262.605 126.770, 261.258 125.929 C 259.823 125.033, 258.150 125.583, 252.492 128.810 C 237.643 137.280, 232.881 135.657, 216.331 116.488 C 204.873 103.216, 202.477 100.802, 196.020 96.015 C 189.356 91.075, 188.887 90.419, 183.121 78.012 C 181.294 74.081, 178 72.659, 178 75.801 C 178 76.872, 177.322 79.670, 176.493 82.019 C 175.665 84.368, 174.805 87.289, 174.584 88.511 C 174.248 90.364, 165.035 111.200, 161.848 117.315 C 158.818 123.128, 154.780 136.186, 154.650 140.593 C 154.529 144.703, 155.272 147.248, 158.500 153.784 C 160.700 158.238, 162.817 161.909, 163.205 161.941 C 164.683 162.065, 165.275 154.230, 164.257 148 C 163.674 144.425, 163.339 140.375, 163.515 139 C 163.690 137.625, 163.871 135.938, 163.917 135.250 C 163.963 134.563, 164.416 134, 164.925 134 C 165.433 134, 165.639 135.688, 165.382 137.750 C 164.716 143.086, 165.682 145.929, 168.528 147.011 C 171.223 148.035, 171.631 149.953, 169.858 153.265 C 168.898 155.060, 169.050 155.621, 170.814 156.793 C 172.476 157.896, 172.789 158.843, 172.318 161.343 L 171.723 164.500 174.798 161.623 C 177.370 159.218, 179.071 158.626, 185.187 158.012 C 192.509 157.276, 199.247 154.404, 200.342 151.552 C 201.066 149.665, 200.139 149, 196.782 149 C 194.418 149, 193.628 148.354, 192.399 145.413 C 190.643 141.209, 191.515 139.547, 195.944 138.661 C 198.972 138.056, 204 133.436, 204 131.260 C 204 130.567, 204.480 130, 205.067 130 C 205.654 130, 205.890 130.787, 205.590 131.750 C 204.875 134.050, 205.835 135.380, 209.603 137.310 C 212.233 138.657, 212.894 139.789, 213.948 144.754 C 215.583 152.459, 213.838 157.382, 209.139 158.322 C 206.807 158.789, 205.902 159.619, 205.434 161.720 C 205.093 163.249, 204.636 165.175, 204.418 166 C 203.992 167.614, 196.186 176.010, 195.135 175.985 C 193.469 175.945, 191.883 174.084, 191.442 171.653 C 191.047 169.477, 191.433 168.786, 193.478 168.009 C 196.755 166.763, 196.658 166.125, 193 164.850 C 191.085 164.182, 190 163.117, 190 161.902 C 190 157.603, 179.734 160.859, 175.409 166.530 C 173.953 168.439, 172.553 172.100, 172.016 175.404 C 170.917 182.152, 170.463 183, 167.941 183 C 165.993 183, 165.594 181.071, 165.875 173 C 166.005 169.248, 163.978 165.751, 159.220 161.519 L 154.939 157.712 157.470 164.727 C 160.842 174.076, 160.714 176.204, 156.500 180.868 C 154.575 182.999, 153 185.180, 153 185.715 C 153 186.249, 150.728 188.220, 147.950 190.093 C 143.578 193.043, 142.984 193.835, 143.522 196 C 145.221 202.841, 145.099 204.719, 142.584 210.406 C 141.163 213.620, 139.998 216.755, 139.996 217.374 C 139.993 217.993, 138.182 220.887, 135.970 223.804 C 133.758 226.721, 132.208 229.528, 132.526 230.041 C 132.843 230.555, 134.697 230.771, 136.645 230.521 C 139.168 230.198, 140.044 230.418, 139.687 231.284 C 139.411 231.953, 137.591 236.550, 135.642 241.500 C 131.490 252.048, 124.994 264.915, 121.690 269.137 C 120.409 270.774, 117.390 273.417, 114.982 275.012 C 109.527 278.623, 110.730 279.284, 121.928 278.828 C 129.069 278.538, 130.004 278.702, 130.002 280.244 C 129.999 283.032, 119.531 289.628, 110.687 292.414 C 109.689 292.729, 109.153 293.439, 109.496 293.993 C 110.438 295.517, 116.686 295.201, 122.623 293.330 C 127.220 291.881, 128.488 291.836, 132.210 292.991 C 135.674 294.065, 136.115 294.444, 134.500 294.959 C 133.400 295.310, 130.475 296.578, 128 297.777 C 125.022 299.219, 121.576 299.964, 117.809 299.978 C 111.259 300.003, 109.941 301.076, 113.553 303.443 C 117.611 306.101, 125.126 306.504, 133.569 304.516 C 137.700 303.543, 141.300 302.967, 141.568 303.235 C 141.837 303.503, 141.593 304.939, 141.028 306.426 C 138.402 313.333, 140.300 313.602, 146.856 307.250 C 150.535 303.686, 151.929 301.501, 152.439 298.500 C 152.812 296.300, 154.441 292.626, 156.059 290.337 C 158.970 286.216, 159.817 282.623, 158.125 281.577 C 157.644 281.280, 155.326 282.430, 152.974 284.134 C 147.918 287.797, 142.039 288.957, 140.139 286.668 C 139.195 285.530, 139.141 284.606, 139.931 283.130 C 141.544 280.115, 141.216 275.887, 139.250 274.373 C 137.599 273.101, 137.618 272.926, 139.589 271.263 C 142.802 268.552, 145.682 263.893, 146.868 259.491 C 148.263 254.312, 153.996 248.411, 158.442 247.577 C 160.920 247.112, 161.957 246.342, 162.185 244.795 C 162.613 241.892, 164.615 241.420, 165.305 244.060 C 165.885 246.276, 164.259 251, 162.916 251 C 160.935 251, 156.014 256.458, 154.997 259.783 C 154.372 261.827, 153.347 264.548, 152.719 265.829 C 150.988 269.360, 153.473 272.798, 160.833 277.054 L 167.143 280.702 164.168 283.205 C 160.055 286.666, 152.202 302.191, 150.898 309.439 C 150.310 312.706, 150.112 317.431, 150.458 319.939 C 150.804 322.448, 151.332 327.337, 151.631 330.804 C 152.277 338.280, 153.631 338.472, 156.107 331.439 C 157.063 328.722, 157.880 327.260, 157.922 328.188 C 157.965 329.117, 159.308 331.309, 160.907 333.059 C 162.506 334.810, 165.063 338.550, 166.591 341.371 C 169.692 347.099, 191.468 369.355, 193.333 368.704 C 194.083 368.442, 194.381 366.413, 194.167 363.025 L 193.833 357.753 201.289 365.627 C 220.927 386.363, 231.179 401.542, 236.961 418.442 C 239.805 426.756, 240.848 425.252, 240.258 413.692 C 239.894 406.549, 240.079 403.069, 240.850 402.593 C 243.662 400.855, 256.379 420.325, 260.219 432.247 C 262.435 439.129, 264 440.925, 264 436.589 C 264 432.732, 268.176 422.672, 269.143 424.198 C 269.598 424.914, 269.976 426.512, 269.985 427.750 C 269.993 428.988, 270.450 430, 271 430 C 271.550 430, 272 429.844, 272 429.654 C 272 428.265, 278.308 412.323, 280.843 407.305 C 285.923 397.252, 289.027 393.464, 297.887 386.507 C 302.500 382.885, 307.510 378.216, 309.020 376.132 C 312.558 371.246, 334.118 347.839, 337.606 345.095 C 340.050 343.173, 340.377 343.134, 341.477 344.637 C 342.536 346.086, 343.343 345.613, 348.347 340.609 C 351.466 337.491, 355.406 332.478, 357.104 329.470 C 358.802 326.461, 360.409 324, 360.675 324 C 360.941 324, 360.851 325.403, 360.474 327.118 C 359.378 332.106, 361.952 330.221, 365.504 323.434 C 367.212 320.170, 370.270 314.542, 372.300 310.926 C 376.508 303.429, 377.783 296.901, 376.058 291.675 C 374.816 287.911, 368.955 282, 366.465 282 C 364.001 282, 364.832 283.498, 367.951 284.675 C 372.183 286.273, 374.992 291.421, 374.996 297.590 C 375 303.348, 370.796 312.964, 366.517 316.984 L 364 319.349 364 317.174 C 364 315.545, 363.398 315, 361.597 315 C 359.779 315, 358.271 316.398, 355.399 320.750 C 348.200 331.656, 344.087 336.153, 338.981 338.697 C 335.427 340.468, 329.904 345.478, 319.866 356.037 C 309.670 366.762, 304.248 371.666, 300.349 373.693 C 294.313 376.831, 293.051 376.282, 293.009 370.500 C 292.985 367.325, 297.481 349.706, 299.065 346.764 C 299.579 345.809, 300 344.242, 300 343.283 C 300 342.324, 301.670 338.833, 303.712 335.526 C 306.780 330.555, 307.432 328.559, 307.477 324.006 C 307.518 319.793, 308.349 316.858, 311.015 311.510 C 314.348 304.825, 314.493 304.084, 314.346 294.510 C 314.164 282.664, 312.364 275.638, 309.401 275.205 C 307.475 274.925, 307.384 275.432, 307.426 286.205 C 307.456 293.939, 307.024 298.446, 306.057 300.500 L 304.643 303.500 304.226 301 C 303.784 298.354, 302.263 296, 300.994 296 C 300.575 296, 300.043 298.991, 299.810 302.646 C 299.437 308.507, 299.057 309.540, 296.593 311.396 C 295.057 312.553, 291.799 315.413, 289.354 317.750 C 282.558 324.245, 281.352 323.699, 280.511 313.750 C 278.932 295.057, 279.536 296.824, 273.719 293.857 C 269.940 291.929, 268.509 291.795, 257.537 292.347 C 244.438 293.006, 244.410 291.686, 257.500 290.635 C 267.093 289.865, 277.490 291.228, 280.110 293.599 C 282.827 296.059, 283.593 294.597, 282.142 289.718 C 279.138 279.616, 278.742 276.746, 278.506 263.349 C 278.246 248.613, 277.153 240.323, 273.913 228.500 C 271.462 219.559, 271.526 216.767, 274.343 209.920 C 278.263 200.392, 282.663 195.748, 289.886 193.516 C 292.067 192.842, 292.216 193.002, 291.622 195.370 C 291.009 197.814, 291.119 197.905, 293.551 196.981 C 296.936 195.694, 300.641 195.737, 303.176 197.094 C 305.142 198.146, 305.101 198.260, 302.110 200.079 C 298.297 202.398, 297.897 204.370, 301.519 202.993 C 307.436 200.743, 322 204.619, 322 208.443 C 322 209.253, 320.066 211.049, 317.702 212.435 C 313.669 214.798, 313.007 214.890, 307.001 213.923 C 303.480 213.356, 298.777 213.196, 296.550 213.568 C 292.564 214.234, 292.528 214.213, 294.280 212.261 C 295.258 211.170, 297.859 209.466, 300.058 208.474 C 304.802 206.335, 304.725 204.364, 299.916 204.833 C 295.995 205.214, 287.436 210.317, 285.899 213.189 C 285.075 214.728, 284.230 214.990, 281.805 214.457 C 279.663 213.987, 278.957 214.122, 279.444 214.909 C 279.826 215.527, 280.526 215.793, 281 215.500 C 281.474 215.207, 282.136 215.412, 282.472 215.954 C 283.268 217.243, 280.483 222.601, 278.651 223.304 C 277.435 223.770, 277.420 224.678, 278.547 229.525 C 279.272 232.646, 280.086 235.419, 280.354 235.688 C 280.623 235.956, 282.116 235.265, 283.671 234.151 C 285.655 232.731, 288.700 231.970, 293.863 231.604 C 301.370 231.072, 306 229.134, 306 226.524 C 306 223.112, 308.687 219.686, 313.128 217.435 C 315.730 216.117, 318.105 214.639, 318.406 214.152 C 319.067 213.082, 327 215.037, 327 216.270 C 327 218.012, 321.633 228.013, 319.109 230.973 C 317.552 232.800, 314.291 234.799, 311.020 235.933 L 305.539 237.833 308.319 239.099 C 310.496 240.091, 311.809 240.109, 314.370 239.183 C 318.786 237.586, 319.242 237.679, 318.038 239.928 C 316.889 242.077, 308.129 245, 302.839 245 C 300.996 245, 297.945 244.558, 296.060 244.017 C 291.976 242.846, 291.476 243.152, 292.954 245.914 C 294.345 248.513, 292.542 248.768, 289.223 246.443 C 286.255 244.365, 286.220 246.541, 289.171 249.682 C 290.364 250.952, 291.022 252.312, 290.631 252.702 C 289.803 253.530, 283 250.089, 283 248.843 C 283 248.379, 282.550 248, 282 248 C 279.818 248, 281.223 252.176, 285.592 258.672 C 292.130 268.393, 292.948 270.223, 294.588 278.796 C 296.483 288.699, 298.130 290.505, 297.445 281.929 C 296.671 272.235, 299.612 265.918, 307.500 260.325 C 311.599 257.419, 314.984 255.863, 318.183 255.416 C 323.218 254.711, 329 251.751, 329 249.879 C 329 249.090, 327.583 248.922, 324.500 249.345 C 320.003 249.961, 318.549 248.911, 321.564 247.224 C 323.424 246.183, 334.767 247.562, 336.555 249.045 C 337.238 249.612, 338.978 253.263, 340.421 257.158 C 343.369 265.111, 343.470 264.754, 336.371 271.521 C 331.893 275.789, 330.056 280.277, 331.710 282.905 C 333.674 286.025, 337.319 285.278, 344 280.387 C 347.078 278.133, 348.163 277.895, 353 278.407 C 357.964 278.932, 358.930 278.696, 362.917 275.983 C 367.757 272.690, 367.042 272.538, 374.471 278.433 C 380.515 283.227, 384.921 282.434, 402.839 273.328 C 403.025 273.233, 401.305 271.464, 399.017 269.396 C 396.728 267.328, 393.992 263.944, 392.937 261.876 C 391.882 259.808, 389.949 256.540, 388.642 254.614 C 383.889 247.609, 373.117 217.216, 374.794 215.539 C 375.093 215.240, 376.164 215.744, 377.175 216.658 C 381.227 220.325, 379.932 216.591, 374.128 207.869 C 370.758 202.805, 368 198.075, 368 197.359 C 368 196.643, 369.377 195.700, 371.061 195.264 C 372.745 194.828, 374.081 194.146, 374.031 193.748 C 373.768 191.663, 369.969 184.068, 368.825 183.342 C 368.096 182.879, 366.792 181.150, 365.928 179.500 C 364.632 177.028, 363.339 174.696, 361.274 171.107 C 361.150 170.892, 360.475 171.164, 359.774 171.713 C 358.079 173.041, 354.432 174.058, 349.250 174.648 C 345.070 175.125, 345.015 175.091, 345.944 172.647 C 346.464 171.280, 346.889 166.714, 346.889 162.500 C 346.889 154.406, 347.889 152, 351.253 152 C 353.170 152, 353.233 152.439, 352.617 161.619 C 352.262 166.909, 351.726 171.634, 351.427 172.119 C 351.127 172.603, 351.557 173, 352.382 173 C 353.207 173, 354.160 172.550, 354.500 172 C 354.840 171.450, 355.972 171, 357.016 171 C 358.511 171, 359.452 169.295, 361.456 162.948 C 364.103 154.571, 364.808 142.376, 363.349 130.228 C 362.822 125.836, 362.428 125.047, 360.992 125.503 C 359.662 125.925, 358.754 124.845, 357.018 120.775 C 355.781 117.874, 352.737 111.362, 350.255 106.305 C 344.925 95.448, 343.680 86.714, 346.364 79.014 C 348.272 73.544, 347.096 71.813, 343.748 75.161 M 335.246 116.154 C 333.271 118.129, 333.769 121.055, 337.175 127.500 C 340.544 133.874, 341.296 139.925, 339.630 147.250 C 338.484 152.292, 340.046 152.059, 342.984 146.750 C 344.278 144.412, 346.386 141.228, 347.668 139.673 C 349.569 137.370, 350 135.673, 350 130.501 C 350 124.868, 349.630 123.669, 346.708 119.828 C 344.100 116.401, 342.694 115.438, 339.953 115.204 C 338.049 115.042, 335.931 115.469, 335.246 116.154 M 322.643 128.409 C 320.061 130.521, 318.222 133.105, 313.589 141.133 C 312.754 142.581, 311.812 145.230, 311.496 147.021 C 311.181 148.811, 310.474 151.113, 309.926 152.138 C 309.057 153.763, 309.314 154, 311.945 154 C 313.603 154, 316.771 154.725, 318.986 155.611 C 322.556 157.039, 323.268 157.055, 325.265 155.746 C 329.176 153.183, 330.543 149.486, 329.300 144.828 C 328.610 142.244, 328.539 139.608, 329.106 137.632 C 330.923 131.295, 329.740 125.927, 326.550 126.036 C 325.973 126.056, 324.214 127.124, 322.643 128.409 M 216.750 202.572 C 213.575 204.295, 213.493 204.676, 215.457 208.612 C 216.358 210.419, 219.026 212.638, 222.455 214.432 C 226.839 216.725, 228.186 218.015, 228.901 220.602 C 229.397 222.401, 231.150 225.589, 232.796 227.687 C 234.695 230.107, 236.032 233.234, 236.455 236.247 C 237.130 241.052, 238.905 243, 242.609 243 C 244.170 243, 244.139 242.769, 242.299 240.750 C 237.822 235.834, 236.834 230.821, 236.587 211.749 C 236.535 207.740, 236.072 204.999, 235.446 204.999 C 234.867 205, 232.866 206.575, 231 208.500 C 229.134 210.425, 227.303 212, 226.932 212 C 226.560 212, 225.953 210.110, 225.584 207.800 C 224.483 200.917, 222.243 199.592, 216.750 202.572 M 359.430 208.250 C 361.283 217.164, 362.100 234.902, 360.868 239.484 L 359.797 243.468 358.028 241.283 C 356.265 239.105, 356.256 239.113, 355.639 243.617 C 355.204 246.794, 355.488 249.043, 356.596 251.185 C 357.463 252.862, 358.319 255.813, 358.498 257.743 C 358.865 261.691, 361.182 264.624, 363.030 263.481 C 363.913 262.936, 364.057 260.891, 363.550 256.113 C 362.661 247.730, 362.636 245.390, 363.415 243.360 C 364.459 240.640, 367.733 244.452, 368.550 249.339 C 368.991 251.981, 370.478 254.870, 372.623 257.253 C 374.480 259.317, 376 261.454, 376 262.003 C 376 262.551, 376.427 263, 376.948 263 C 377.520 263, 377.475 261.793, 376.834 259.954 C 375.967 257.467, 376.085 256.564, 377.476 255.026 C 380.025 252.210, 378.758 249.906, 370.347 242.051 C 362.738 234.945, 362.388 233.316, 369.261 237 C 371.314 238.100, 373.217 239, 373.490 239 C 374.104 239, 373.383 233.118, 372.485 230.802 C 372.123 229.869, 370.290 227.933, 368.413 226.502 C 366.536 225.070, 365 223.166, 365 222.270 C 365 221.375, 364.579 219.260, 364.065 217.571 C 363.550 215.882, 362.632 212.588, 362.024 210.250 C 360.901 205.928, 358.574 204.135, 359.430 208.250 M 194.667 213.667 C 194.300 214.033, 194.016 217.296, 194.036 220.917 C 194.075 228.026, 195.547 230.762, 201.250 234.327 C 202.762 235.273, 204 236.422, 204 236.881 C 204 237.341, 201.692 239.332, 198.871 241.307 L 193.743 244.897 197.121 248.025 C 198.980 249.745, 202.975 253.575, 206 256.536 C 209.025 259.496, 213.750 262.869, 216.500 264.031 C 219.250 265.192, 222.278 266.847, 223.229 267.707 C 224.714 269.052, 225.587 269.096, 229.429 268.020 C 235.060 266.443, 237.012 264.298, 237.193 259.489 C 237.392 254.198, 234.515 252, 227.389 252 C 221.080 252, 220.194 250.506, 226.039 249.722 C 231.144 249.037, 232.785 247.663, 233.584 243.406 C 235.071 235.479, 232.058 233.155, 220.198 233.083 C 213.584 233.043, 208.437 231.246, 205.436 227.929 C 204.476 226.868, 203.085 226, 202.345 226 C 201.605 226, 201 225.494, 201 224.875 C 201 224.158, 202.089 223.968, 204 224.350 C 205.650 224.680, 207 224.714, 207 224.425 C 207 222.620, 203.494 217.716, 200.657 215.552 C 197.227 212.936, 195.836 212.498, 194.667 213.667 M 298 219 C 298 219.550, 298.450 220, 299 220 C 299.550 220, 300 219.550, 300 219 C 300 218.450, 299.550 218, 299 218 C 298.450 218, 298 218.450, 298 219 M 223 221 C 223 221.550, 223.450 222, 224 222 C 224.550 222, 225 221.550, 225 221 C 225 220.450, 224.550 220, 224 220 C 223.450 220, 223 220.450, 223 221 M 214 223.254 C 214 226.128, 216.318 229, 218.637 229 C 221.106 229, 224 227.034, 224 225.356 C 224 224.157, 223.375 223.940, 221.370 224.443 C 219.414 224.934, 218.131 224.532, 216.370 222.877 L 214 220.651 214 223.254 M 300.649 224.097 C 298.935 226.099, 297.783 226.167, 293.750 224.506 C 292.425 223.961, 292 224.274, 292 225.795 C 292 228.819, 297.297 230.426, 299.881 228.187 C 301.557 226.734, 303.783 222, 302.790 222 C 302.600 222, 301.636 222.944, 300.649 224.097 M 0.442 256 C 0.442 272.225, 0.580 278.863, 0.748 270.750 C 0.916 262.637, 0.916 249.362, 0.748 241.250 C 0.580 233.137, 0.442 239.775, 0.442 256 M 264.557 305.223 C 263.701 306.445, 263 308.294, 263 309.331 C 263 310.914, 263.442 311.089, 265.750 310.423 C 267.262 309.987, 270.070 309.595, 271.988 309.553 C 274.359 309.502, 275.576 308.962, 275.787 307.868 C 276.022 306.648, 275.502 306.373, 273.637 306.729 C 271.859 307.069, 270.866 306.618, 270.053 305.100 C 268.600 302.384, 266.512 302.431, 264.557 305.223 M 218.118 308.615 C 215.817 310.241, 215.759 310.603, 216.404 319.149 C 216.771 324.017, 216.839 328, 216.555 328 C 215.353 328, 209.998 314.805, 209.978 311.792 L 209.956 308.500 208.019 312.767 C 206.520 316.069, 205.401 317.170, 203.064 317.637 C 198.684 318.513, 197.632 320.362, 197.889 326.728 C 198.164 333.514, 199.701 337.451, 203.978 342.323 C 205.754 344.345, 206.690 346, 206.058 346 C 203.979 346, 200 350.859, 200 353.397 C 200 358.822, 205.789 365.195, 218.059 373.279 C 221.116 375.293, 225.070 378.748, 226.846 380.958 C 228.713 383.281, 232.462 386.139, 235.740 387.737 C 239.192 389.420, 244.236 393.334, 248.643 397.750 C 255.479 404.599, 256.128 405, 260.368 405 C 265.945 405, 268.922 402.687, 266.635 400.131 C 264.522 397.771, 260.522 388.316, 258.951 381.971 C 258.207 378.962, 257.575 372.088, 257.549 366.696 L 257.500 356.892 255.242 359.696 C 252.436 363.180, 251.013 368.070, 251.006 374.250 C 251.003 376.863, 250.662 378.972, 250.250 378.939 C 248.906 378.829, 236.836 361.634, 234.499 356.500 C 230.223 347.107, 229.821 344.526, 230.133 328.477 C 230.411 314.197, 230.280 312.851, 228.368 310.278 C 225.883 306.936, 221.500 306.225, 218.118 308.615 M 265.500 320 C 265.160 320.550, 265.359 321, 265.941 321 C 266.523 321, 267 320.550, 267 320 C 267 319.450, 266.802 319, 266.559 319 C 266.316 319, 265.840 319.450, 265.500 320 M 279 329.559 C 279 330.416, 279.457 330.835, 280.016 330.490 C 280.575 330.144, 280.774 329.443, 280.457 328.931 C 279.600 327.544, 279 327.802, 279 329.559 M 126.308 341.250 C 121.609 346.202, 119.675 350.807, 119.694 357 C 119.728 367.687, 123.785 372.479, 133.804 373.661 C 141.380 374.556, 146.268 372.641, 153.270 366.035 L 159.500 360.158 156.044 356.569 L 152.589 352.980 148.044 357.375 C 142.522 362.715, 140.135 364.005, 135.816 363.985 C 131.302 363.964, 130.028 362.945, 129.359 358.824 C 128.625 354.300, 130.440 350.871, 136.922 344.538 C 139.715 341.808, 142 339.221, 142 338.788 C 142 338.354, 139.163 338, 135.696 338 C 129.883 338, 129.152 338.253, 126.308 341.250 M 356.697 350.843 C 345.083 362.602, 345 362.719, 345 367.420 C 345 373.895, 348.892 378, 355.030 378 C 358.864 378, 359.829 377.402, 366.605 370.832 C 370.671 366.890, 374.210 363.876, 374.469 364.135 C 374.728 364.395, 371.353 368.172, 366.970 372.530 C 359.655 379.802, 359 380.782, 359 384.459 L 359 388.466 348.234 377.733 C 342.312 371.830, 337.137 367, 336.734 367 C 336.330 367, 336 369.803, 336 373.229 L 336 379.458 344.228 387.729 L 352.456 396 348 396 C 343.781 396, 343.132 396.410, 335.772 403.727 L 328 411.453 319.997 403.497 L 311.993 395.540 308.497 399.037 L 305 402.533 316.507 414.007 L 328.014 425.481 356.132 397.364 C 383.470 370.026, 384.253 369.133, 384.357 365.172 C 384.547 357.928, 378.260 352.714, 371.409 354.433 C 369.910 354.810, 365.604 358.090, 361.841 361.724 C 358.077 365.358, 354.786 368.120, 354.529 367.862 C 354.271 367.604, 357.647 363.828, 362.030 359.470 L 370 351.547 370 345.273 C 370 341.823, 369.639 339, 369.197 339 C 368.755 339, 363.130 344.329, 356.697 350.843 M 150.726 370.848 C 142.168 379.821, 141.715 387.481, 149.260 395.667 C 154.486 401.336, 157.718 403, 163.500 403 C 169.529 403, 172.196 401.475, 179.959 393.588 L 186.417 387.025 182.998 383.498 L 179.579 379.971 172.889 386.610 C 164.980 394.459, 162.622 394.965, 157.427 389.929 C 152.177 384.840, 152.718 382.724, 161.500 374 C 165.625 369.903, 169 366.201, 169 365.775 C 169 365.349, 166.143 365, 162.652 365 L 156.304 365 150.726 370.848 M 174.017 401.483 L 164.574 410.965 167.991 414.491 L 171.408 418.016 175.497 414.003 L 179.585 409.991 183.174 413.745 C 186.830 417.569, 189 421.001, 189 422.957 C 189 423.555, 187.143 426.060, 184.873 428.522 L 180.745 433 187.816 433 C 193.989 433, 195.084 432.718, 196.443 430.777 C 197.299 429.555, 198 427.080, 198 425.277 C 198 422.431, 198.335 422, 200.550 422 C 203.809 422, 207.838 419.899, 210.935 416.584 L 213.370 413.977 209.989 410.489 L 206.609 407.001 204.054 409.388 C 199.287 413.844, 197.547 413.664, 191.747 408.119 L 186.500 403.102 191.250 398.266 C 193.863 395.607, 196 393.109, 196 392.716 C 196 392.322, 193.179 392, 189.730 392 L 183.460 392 174.017 401.483 M 301 407.270 L 301 413.540 310.483 422.983 L 319.965 432.426 323.503 428.997 L 327.040 425.569 314.785 413.284 C 308.045 406.528, 302.186 401, 301.765 401 C 301.344 401, 301 403.821, 301 407.270" stroke="none" fill="black" fill-rule="evenodd"/>
</svg>